<svg aria-hidden="true" xmlns="http://www.w3.org/2000/svg" overflow="hidden">
	<defs>
		<symbol id="IconX" viewBox="0 0 32 32" width="30px" height="30px">
			<path class="iconcolor" fill="" d="M30 24.398l-8.406-8.398 8.406-8.398-5.602-5.602-8.398 8.402-8.402-8.402-5.598 5.602 8.398 8.398-8.398 8.398 5.598 5.602 8.402-8.402 8.398 8.402z">
			</path>
		</symbol>
		<symbol id="Vector41" viewBox="0 0 325 32" width="170px" height="20px">
			<path fill="" d="M179.947 0h-160.905l-18.566 18.566 18.566 12.377h314.195v-3.332h-128.535l-24.755-27.611z">
			</path>
		</symbol>
		<symbol id="separator">
			<path fill="" d="M179.947 0h-160.905l-18.566 18.566 18.566 12.377h314.195v-3.332h-128.535l-24.755-27.611z">
			</path>
		</symbol>
		<!--
		<symbol id="lines-separator">
		<g stroke="" stroke-miterlimit="0" stroke-width="1" clip-path="url(#a)"><path d="M-24 21 11.984 0M13.968 21 49.952 0M-5.016 21 30.968 0M51.935 21 87.92 0M32.952 21 68.936 0M89.903 21l35.984-21M70.92 21l35.983-21M127.871 21l35.984-21M108.887 21l35.984-21M165.839 21l35.984-21M146.855 21l35.984-21M203.807 21 239.79 0M184.823 21l35.984-21M241.774 21l35.984-21M222.791 21l35.983-21M279.742 21l35.984-21M260.758 21l35.984-21M317.71 21l35.984-21M298.726 21 334.71 0M355.678 21l35.984-21M336.694 21l35.984-21M393.646 21l35.983-21M374.662 21l35.983-21M431.613 21l35.984-21M412.629 21l35.984-21M469.581 21l35.984-21M450.597 21l35.984-21M507.549 21l35.984-21M488.565 21l35.984-21M545.517 21 581.5 0M526.533 21l35.984-21M583.484 21l35.984-21M564.5 21l35.984-21M621.452 21l35.984-21M602.468 21l35.984-21M640.436 21 676.42 0M659.42 21l35.984-21M678.404 21l35.984-21M697.388 21l35.984-21M716.371 21l35.984-21M735.355 21l35.984-21M754.339 21l35.984-21M773.323 21l35.984-21"/></g><defs><clipPath id="a"><path fill="#fff" d="M0 0h790v21H0z"/></clipPath></defs>
		</symbol>
		-->
		<symbol id="lines-separator">
			<path stroke="" stroke-width="0.8" d="m1.157 15 17-13m-17 0 17 13M349.157 15l17-13m-17 0 17 13M175.157 15l17-13m-17 0 17 13M523.157 15l17-13m-17 0 17 13M88.157 15l17-13m-17 0 17 13M436.157 15l17-13m-17 0 17 13M262.157 15l17-13m-17 0 17 13M610.157 15l17-13m-17 0 17 13M30.157 15l17-13m-17 0 17 13M378.157 15l17-13m-17 0 17 13M204.157 15l17-13m-17 0 17 13M552.157 15l17-13m-17 0 17 13M117.157 15l17-13m-17 0 17 13M465.157 15l17-13m-17 0 17 13M291.157 15l17-13m-17 0 17 13M639.157 15l17-13m-17 0 17 13M59.157 15l17-13m-17 0 17 13M407.157 15l17-13m-17 0 17 13M233.157 15l17-13m-17 0 17 13M581.157 15l17-13m-17 0 17 13M146.157 15l17-13m-17 0 17 13M494.157 15l17-13m-17 0 17 13M320.157 15l17-13m-17 0 17 13M668.157 15l17-13m-17 0 17 13" />
		</symbol>
		<symbol id="icon-html">
			<path fill="#e34f26" d="M2 0h28l-2.547 28.751-11.484 3.249-11.419-3.251zM11.375 13l-0.309-3.624 13.412 0.004 0.307-3.496-17.568-0.004 0.931 10.68h12.168l-0.435 4.568-3.88 1.072-3.94-1.080-0.251-2.813h-3.479l0.44 5.561 7.229 1.933 7.172-1.924 0.992-10.876z">
			</path>
		</symbol>
		<symbol id="icon-css" viewBox="0 0 32 32">
			<path fill="#1572b6" style="fill: var(--color13, #1572b6)" d="M2 0h28l-2.547 28.751-11.484 3.249-11.42-3.251zM24.787 5.884l-17.573-0.004 0.284 3.496 13.5 0.003-0.34 3.621h-8.853l0.32 3.431h8.243l-0.488 4.697-3.88 1.072-3.941-1.080-0.251-2.813h-3.48l0.387 5.14 7.287 2.271 7.164-2.040z">
			</path>
		</symbol>
		<symbol id="icon-javascript" viewBox="0 0 32 32">
			<path fill="#f7df1e" style="fill: var(--color12, #f7df1e)" d="M0 0h32v32h-32zM29.379 24.368c-0.233-1.46-1.184-2.687-4.004-3.831-0.981-0.46-2.072-0.78-2.396-1.52-0.121-0.44-0.14-0.68-0.061-0.94 0.2-0.861 1.22-1.12 2.020-0.88 0.52 0.16 1 0.56 1.301 1.2 1.379-0.901 1.379-0.901 2.34-1.5-0.36-0.56-0.539-0.801-0.781-1.040-0.84-0.94-1.959-1.42-3.779-1.379l-0.94 0.119c-0.901 0.22-1.76 0.7-2.28 1.34-1.52 1.721-1.081 4.721 0.759 5.961 1.82 1.36 4.481 1.659 4.821 2.94 0.32 1.56-1.16 2.060-2.621 1.88-1.081-0.24-1.68-0.781-2.34-1.781l-2.44 1.401c0.28 0.64 0.6 0.919 1.080 1.479 2.32 2.341 8.12 2.221 9.161-1.339 0.039-0.12 0.32-0.94 0.099-2.2zM17.401 14.708h-2.997c0 2.584-0.012 5.152-0.012 7.74 0 1.643 0.084 3.151-0.184 3.615-0.44 0.919-1.573 0.801-2.088 0.64-0.528-0.261-0.796-0.621-1.107-1.14-0.084-0.14-0.147-0.261-0.169-0.261l-2.433 1.5c0.407 0.84 1 1.563 1.765 2.023 1.14 0.68 2.672 0.9 4.276 0.54 1.044-0.301 1.944-0.921 2.415-1.881 0.68-1.24 0.536-2.76 0.529-4.461 0.016-2.739 0-5.479 0-8.239z">
			</path>
		</symbol>
		<symbol id="icon-react" viewBox="0 0 32 32">
			<path fill="#61dafb" style="fill: var(--color11, #61dafb)" d="M16 13.148c-1.575 0-2.852 1.277-2.852 2.852s1.277 2.852 2.852 2.852v0c1.575 0 2.852-1.277 2.852-2.852s-1.277-2.852-2.852-2.852v0zM8.011 21.673l-0.629-0.16c-4.691-1.185-7.381-3.197-7.381-5.519s2.691-4.333 7.381-5.519l0.629-0.159 0.177 0.624c0.545 1.86 1.163 3.443 1.899 4.957l-0.082-0.186 0.135 0.284-0.135 0.284c-0.656 1.329-1.275 2.912-1.761 4.551l-0.056 0.22zM7.089 11.933c-3.565 1.001-5.753 2.533-5.753 4.061 0 1.527 2.188 3.059 5.753 4.061 0.512-1.62 1.046-2.965 1.662-4.263l-0.086 0.202c-0.531-1.098-1.066-2.443-1.511-3.828l-0.065-0.234zM23.989 21.673l-0.177-0.625c-0.544-1.859-1.162-3.441-1.9-4.954l0.081 0.184-0.135-0.284 0.135-0.284c0.656-1.329 1.275-2.911 1.762-4.55l0.056-0.221 0.177-0.624 0.631 0.159c4.689 1.185 7.38 3.197 7.38 5.52s-2.691 4.333-7.38 5.519zM23.335 15.995c0.64 1.385 1.169 2.747 1.576 4.061 3.567-1.003 5.753-2.535 5.753-4.061 0-1.528-2.188-3.059-5.753-4.061-0.511 1.619-1.045 2.963-1.662 4.262l0.086-0.2zM7.080 11.927l-0.177-0.623c-1.319-4.648-0.919-7.979 1.097-9.141 1.977-1.141 5.152 0.207 8.479 3.621l0.453 0.465-0.453 0.465c-1.146 1.19-2.207 2.482-3.162 3.853l-0.068 0.103-0.18 0.257-0.313 0.027c-1.875 0.151-3.596 0.439-5.264 0.86l0.218-0.047zM9.608 3.087c-0.357 0-0.673 0.077-0.94 0.231-1.325 0.764-1.56 3.42-0.647 7.004 1.21-0.285 2.681-0.521 4.18-0.658l0.131-0.010c0.894-1.264 1.792-2.37 2.756-3.414l-0.020 0.022c-2.080-2.025-4.049-3.175-5.46-3.175zM22.393 30.236c-0.001 0-0.001 0 0 0-1.9 0-4.34-1.431-6.872-4.031l-0.453-0.465 0.453-0.465c1.146-1.19 2.206-2.482 3.16-3.854l0.068-0.103 0.18-0.257 0.312-0.027c1.875-0.15 3.597-0.438 5.267-0.858l-0.218 0.046 0.629-0.159 0.179 0.624c1.316 4.645 0.917 7.977-1.099 9.139-0.449 0.259-0.988 0.411-1.562 0.411-0.016 0-0.031-0-0.047-0l0.002 0zM16.932 25.728c2.080 2.025 4.049 3.175 5.46 3.175h0.001c0.356 0 0.673-0.077 0.939-0.231 1.325-0.764 1.561-3.421 0.647-7.005-1.212 0.286-2.682 0.522-4.182 0.658l-0.13 0.010c-0.893 1.265-1.791 2.371-2.755 3.416l0.020-0.022zM24.92 11.927l-0.629-0.159c-1.453-0.376-3.175-0.664-4.939-0.806l-0.111-0.007-0.312-0.027-0.18-0.257c-1.021-1.474-2.082-2.766-3.237-3.966l0.009 0.010-0.453-0.465 0.453-0.465c3.325-3.413 6.499-4.761 8.479-3.621 2.016 1.163 2.416 4.493 1.099 9.14zM19.667 9.653c1.523 0.139 2.969 0.364 4.312 0.668 0.915-3.584 0.679-6.24-0.647-7.004-1.317-0.761-3.793 0.405-6.4 2.944 0.943 1.022 1.841 2.128 2.666 3.289l0.069 0.103zM9.608 30.236c-0.014 0-0.030 0-0.046 0-0.574 0-1.113-0.152-1.577-0.419l0.015 0.008c-2.016-1.161-2.416-4.492-1.097-9.139l0.176-0.624 0.629 0.159c1.54 0.388 3.239 0.661 5.047 0.812l0.313 0.027 0.179 0.257c1.022 1.475 2.083 2.767 3.239 3.967l-0.010-0.010 0.453 0.465-0.453 0.465c-2.531 2.6-4.971 4.031-6.868 4.031zM8.021 21.667c-0.915 3.584-0.679 6.241 0.647 7.005 1.316 0.751 3.791-0.407 6.4-2.944-0.943-1.022-1.841-2.129-2.667-3.29l-0.069-0.103c-1.629-0.146-3.099-0.382-4.534-0.711l0.224 0.043zM16 22.504c-1.097 0-2.225-0.048-3.355-0.141l-0.313-0.027-0.18-0.257c-0.544-0.768-1.139-1.691-1.697-2.639l-0.103-0.19c-0.452-0.758-0.971-1.732-1.45-2.728l-0.105-0.243-0.133-0.284 0.133-0.284c0.584-1.239 1.102-2.212 1.658-3.161l-0.103 0.191c0.552-0.955 1.159-1.907 1.8-2.829l0.18-0.257 0.313-0.027c1.005-0.090 2.174-0.142 3.355-0.142s2.35 0.052 3.505 0.153l-0.15-0.011 0.312 0.027 0.179 0.257c1.177 1.666 2.294 3.567 3.252 5.56l0.104 0.24 0.135 0.284-0.135 0.284c-1.058 2.232-2.176 4.133-3.439 5.925l0.083-0.125-0.179 0.257-0.312 0.027c-1.129 0.093-2.259 0.141-3.356 0.141zM13.071 21.059c1.973 0.148 3.885 0.148 5.86 0 1.004-1.445 1.978-3.104 2.827-4.836l0.101-0.228c-0.947-1.958-1.922-3.617-3.012-5.19l0.083 0.126c-0.877-0.071-1.898-0.111-2.929-0.111s-2.052 0.040-3.063 0.119l0.134-0.008c-1.008 1.447-1.983 3.106-2.83 4.84l-0.099 0.224c0.951 1.96 1.926 3.619 3.014 5.193l-0.085-0.13z">
			</path>
		</symbol>
		<symbol id="icon-node" viewBox="0 0 32 32">
			<path fill="#393" style="fill: var(--color10, #393)" d="M15.997 32c-0.428 0-0.855-0.112-1.229-0.329l-3.915-2.316c-0.584-0.327-0.299-0.443-0.107-0.511 0.78-0.271 0.937-0.333 1.771-0.805 0.087-0.049 0.201-0.031 0.291 0.023l3.008 1.785c0.109 0.060 0.263 0.060 0.363 0l11.727-6.768c0.109-0.063 0.179-0.188 0.179-0.317v-13.533c0-0.132-0.071-0.256-0.183-0.323l-11.721-6.763c-0.108-0.063-0.252-0.063-0.361 0l-11.719 6.764c-0.113 0.065-0.185 0.193-0.185 0.321v13.533c0 0.129 0.072 0.252 0.185 0.313l3.212 1.856c1.743 0.872 2.811-0.155 2.811-1.187v-13.361c0-0.189 0.152-0.337 0.341-0.337h1.487c0.185 0 0.34 0.149 0.34 0.337v13.361c0 2.327-1.267 3.66-3.472 3.66-0.677 0-1.212 0-2.701-0.735l-3.077-1.769c-0.76-0.439-1.229-1.26-1.229-2.139v-13.533c0-0.879 0.471-1.7 1.229-2.137l11.727-6.776c0.743-0.42 1.728-0.42 2.464 0l11.725 6.776c0.76 0.439 1.232 1.259 1.232 2.137v13.533c0 0.879-0.472 1.697-1.232 2.139l-11.725 6.771c-0.373 0.217-0.799 0.329-1.233 0.329zM25.465 18.657c0-2.533-1.712-3.208-5.316-3.684-3.641-0.481-4.012-0.731-4.012-1.583 0-0.704 0.313-1.644 3.011-1.644 2.409 0 3.297 0.519 3.663 2.143 0.032 0.153 0.172 0.265 0.329 0.265h1.521c0.095 0 0.184-0.041 0.248-0.108 0.064-0.072 0.099-0.164 0.089-0.261-0.236-2.797-2.095-4.101-5.851-4.101-3.344 0-5.339 1.411-5.339 3.777 0 2.567 1.984 3.276 5.193 3.593 3.84 0.376 4.137 0.937 4.137 1.692 0 1.311-1.052 1.869-3.523 1.869-3.103 0-3.785-0.779-4.015-2.323-0.027-0.165-0.168-0.287-0.337-0.287h-1.516c-0.188 0-0.339 0.149-0.339 0.337 0 1.976 1.075 4.331 6.207 4.331 3.717 0.001 5.848-1.461 5.848-4.017z">
			</path>
		</symbol>
		<symbol id="icon-git" viewBox="0 0 32 32">
			<path fill="#f05032" style="fill: var(--color9, #f05032)" d="M31.395 14.573l-13.972-13.971c-0.805-0.804-2.109-0.804-2.917 0l-2.895 2.9 3.68 3.68c0.86-0.287 1.839-0.093 2.519 0.588 0.688 0.687 0.877 1.677 0.584 2.533l3.544 3.547c0.86-0.297 1.849-0.104 2.533 0.58 0.961 0.96 0.961 2.512 0 3.472-0.959 0.959-2.508 0.959-3.467 0-0.719-0.721-0.899-1.783-0.539-2.661l-3.319-3.301v8.7c0.235 0.115 0.456 0.271 0.651 0.464 0.951 0.961 0.951 2.511 0 3.467-0.959 0.961-2.519 0.961-3.479 0-0.959-0.959-0.959-2.505 0-3.464 0.243-0.24 0.516-0.421 0.807-0.541v-8.785c-0.289-0.121-0.565-0.296-0.8-0.535-0.727-0.727-0.901-1.789-0.528-2.679l-3.616-3.633-9.581 9.575c-0.8 0.807-0.8 2.112 0 2.919l13.973 13.969c0.805 0.805 2.109 0.805 2.915 0l13.907-13.907c0.807-0.804 0.807-2.109 0-2.916z">
			</path>
		</symbol>
		<symbol id="icon-github" viewBox="0 0 32 32">
			<path d="M16 0.396c-8.84 0-16 7.164-16 16 0 7.071 4.584 13.067 10.94 15.18 0.8 0.151 1.093-0.344 1.093-0.769 0-0.38-0.013-1.387-0.020-2.72-4.451 0.965-5.389-2.147-5.389-2.147-0.728-1.847-1.78-2.34-1.78-2.34-1.449-0.992 0.112-0.972 0.112-0.972 1.607 0.112 2.451 1.648 2.451 1.648 1.427 2.447 3.745 1.74 4.66 1.331 0.144-1.035 0.556-1.74 1.013-2.14-3.553-0.4-7.288-1.776-7.288-7.907 0-1.747 0.62-3.173 1.647-4.293-0.18-0.404-0.72-2.031 0.14-4.235 0 0 1.34-0.429 4.4 1.64 1.28-0.356 2.64-0.532 4-0.54 1.36 0.008 2.72 0.184 4 0.54 3.040-2.069 4.38-1.64 4.38-1.64 0.86 2.204 0.32 3.831 0.16 4.235 1.020 1.12 1.64 2.547 1.64 4.293 0 6.147-3.74 7.5-7.3 7.893 0.56 0.48 1.080 1.461 1.080 2.96 0 2.141-0.020 3.861-0.020 4.381 0 0.42 0.28 0.92 1.1 0.76 6.401-2.099 10.981-8.099 10.981-15.159 0-8.836-7.164-16-16-16z">
			</path>
		</symbol>
		<symbol id="icon-vscode" viewBox="0 0 32 32">
			<path fill="#007acc" style="fill: var(--color8, #007acc)" d="M30.867 3.449l-6.587-3.169c-0.253-0.124-0.55-0.197-0.864-0.197-0.55 0-1.049 0.223-1.409 0.584v0l-12.613 11.507-5.493-4.171c-0.221-0.169-0.501-0.271-0.805-0.271-0.346 0-0.661 0.132-0.897 0.348l-1.762 1.602c-0.269 0.245-0.436 0.596-0.436 0.987s0.167 0.741 0.434 0.984l0.001 0.001 4.764 4.347-4.764 4.347c-0.268 0.245-0.435 0.596-0.435 0.985s0.168 0.742 0.435 0.986l0.001 0.001 1.764 1.601c0.236 0.215 0.551 0.347 0.896 0.347 0.304 0 0.584-0.102 0.808-0.273l-0.003 0.002 5.493-4.171 12.613 11.507c0.36 0.361 0.858 0.584 1.408 0.584 0.314 0 0.611-0.073 0.876-0.203l-0.012 0.005 6.589-3.169c0.675-0.331 1.131-1.013 1.131-1.801 0-0.001 0-0.001 0-0.002v0-21.495c0-0 0-0 0-0 0-0.789-0.457-1.472-1.122-1.797l-0.012-0.005zM24.005 23.264l-9.571-7.264 9.571-7.264z">
			</path>
		</symbol>
		<symbol id="icon-mongodb" viewBox="0 0 32 32">
			<path fill="#47a248" style="fill: var(--color7, #47a248)" d="M22.907 12.691c-1.684-7.413-5.656-9.849-6.083-10.781-0.469-0.657-0.977-1.909-0.977-1.909-0.003 0.025-0.005 0.041-0.007 0.065v0.017h-0.001c-0.003 0.020-0.004 0.033-0.005 0.052v0.020h-0.003c0 0.013-0.003 0.024-0.003 0.035v0.035h-0.004c-0.001 0.011-0.001 0.024-0.004 0.033v0.028h-0.003c0 0.009 0 0.020-0.003 0.028v0.027h-0.003c0 0.013-0.001 0.029-0.003 0.043v0.003c-0.004 0.023-0.008 0.045-0.012 0.067v0.011h-0.003c-0.001 0.005-0.004 0.011-0.004 0.016v0.023h-0.004v0.029h-0.007v0.024h-0.007v0.028h-0.005v0.025h-0.005v0.023h-0.008v0.019h-0.005v0.024h-0.005v0.019h-0.007v0.017h-0.004v0.020h-0.005c-0.001 0.001-0.001 0.004-0.001 0.005v0.013h-0.004c-0.001 0.003-0.001 0.005-0.001 0.008v0.008h-0.003c-0.001 0.004-0.003 0.011-0.003 0.013-0.004 0.009-0.009 0.019-0.013 0.028v0.003c-0.003 0.003-0.005 0.007-0.007 0.009v0.011h-0.005v0.011h-0.007v0.011h-0.004v0.013h-0.008v0.019h-0.005v0.005h-0.005v0.011h-0.005v0.015h-0.005v0.011h-0.008v0.015h-0.005v0.011h-0.007v0.011h-0.004v0.013h-0.007v0.011h-0.005v0.008h-0.005v0.011h-0.008v0.012h-0.005v0.008h-0.007v0.011h-0.005v0.015h-0.007v0.005h-0.004v0.011h-0.008v0.005h-0.005v0.013h-0.005v0.005h-0.005v0.011h-0.007v0.008h-0.004l-0.003 0.005v0.005h-0.003c-0.001 0.003-0.003 0.003-0.003 0.005v0.001h-0.001c-0.001 0.004-0.003 0.007-0.005 0.009v0.004h-0.001c-0.007 0.008-0.011 0.016-0.016 0.024v0.001c-0.003 0.003-0.009 0.008-0.012 0.013v0.003h-0.001c-0.001 0.001-0.004 0.003-0.004 0.004v0.004h-0.003l-0.004 0.004v0.001h-0.001c0 0.001-0.003 0.003-0.004 0.005v0.005h-0.004l-0.003 0.003v0.003h-0.003c0 0.003-0.003 0.003-0.003 0.004v0.004h-0.005c0 0.001-0.001 0.003-0.003 0.004v0.008h-0.004v0.005h-0.005v0.008h-0.005v0.011h-0.007v-0.011h-0.007v0.005h-0.005v0.008h-0.007v0.011h-0.007v0.005h-0.005v0.008h-0.005v0.005h-0.005v0.011h-0.008v0.005h-0.005v0.008h-0.007v0.005h-0.005v0.007h-0.007v0.013h-0.003v0.005h-0.008v0.007h-0.005v0.003h-0.005v0.005h-0.007v0.013h-0.005v0.005h-0.007v0.005h-0.005v0.008h-0.007v0.005h-0.007v0.005h-0.005v0.005h-0.005v0.013h-0.005v0.007h-0.008v0.005h-0.005v0.005h-0.007v0.008h-0.005v0.005h-0.007v0.009h-0.005v0.005h-0.008v0.008h-0.003v0.005h-0.005v0.005h-0.007v0.005h-0.005v0.008h-0.007v0.005h-0.004c-0.001 0.001-0.001 0.003-0.001 0.003v0.003h-0.003l-0.005 0.005c0 0-0.003 0.003-0.005 0.004v0.008h-0.005v0.007h-0.005v0.005h-0.005v0.005h-0.004l-0.004 0.004v0.004h-0.003l-0.003 0.003v0.004h-0.003c-0.007 0.008-0.009 0.013-0.019 0.021-0.003 0.003-0.011 0.009-0.016 0.013-0.016 0.011-0.036 0.028-0.052 0.043-0.011 0.007-0.021 0.016-0.029 0.023v0.001h-0.001c-0.021 0.017-0.041 0.033-0.065 0.052v0.001c-0.032 0.027-0.063 0.052-0.099 0.083v-0.001h-0.003c-0.076 0.063-0.156 0.133-0.248 0.212v0.001h-0.001c-0.225 0.197-0.493 0.451-0.793 0.757l-0.025 0.025c-1.813 1.876-4.671 5.785-4.972 12.103-0.027 0.523-0.021 1.031 0.008 1.525v0.012c0.145 2.489 0.927 4.615 1.904 6.341v0.001c0.389 0.688 0.809 1.313 1.235 1.873v0.001c1.469 1.94 2.969 3.089 3.352 3.368 0.588 1.364 0.533 3.705 0.533 3.705l0.859 0.287c0 0-0.175-2.268 0.071-3.363 0.076-0.343 0.256-0.635 0.465-0.883 0.141-0.1 0.56-0.401 1.063-0.86 0.024-0.025 0.037-0.048 0.059-0.072 2.028-1.891 5.816-6.547 4.517-14.132z">
			</path>
		</symbol>
		<symbol id="icon-sass" viewBox="0 0 32 32">
			<path fill="#c69" style="fill: var(--color6, #c69)" d="M16 0c8.836 0 16 7.164 16 16s-7.164 16-16 16-16-7.164-16-16 7.164-16 16-16zM12.82 21.331c0.233 0.86 0.208 1.664-0.032 2.389l-0.087 0.24c-0.032 0.081-0.069 0.16-0.104 0.235-0.187 0.387-0.435 0.747-0.74 1.080-0.931 1.012-2.229 1.396-2.787 1.073-0.6-0.349-0.301-1.78 0.779-2.92 1.161-1.224 2.827-2.012 2.827-2.012v-0.004zM26.035 6.849c-0.723-2.844-5.436-3.779-9.896-2.193-2.652 0.943-5.525 2.424-7.591 4.356-2.457 2.295-2.848 4.295-2.687 5.131 0.569 2.948 4.609 4.876 6.271 6.307v0.008c-0.489 0.24-4.075 2.039-4.915 3.9-0.9 1.96 0.14 3.361 0.82 3.54 2.1 0.581 4.26-0.48 5.42-2.199 1.12-1.681 1.021-3.841 0.539-4.901 0.661-0.18 1.44-0.26 2.44-0.139 2.801 0.32 3.361 2.080 3.24 2.8-0.12 0.719-0.697 1.139-0.899 1.259-0.2 0.121-0.26 0.16-0.241 0.241 0.020 0.12 0.121 0.12 0.28 0.1 0.22-0.040 1.461-0.6 1.521-1.961 0.060-1.72-1.581-3.639-4.5-3.6-1.2 0.021-1.961 0.121-2.5 0.341-0.040-0.060-0.081-0.1-0.14-0.14-1.8-1.94-5.14-3.3-5-5.88 0.040-0.94 0.38-3.419 6.4-6.419 4.94-2.461 8.881-1.78 9.561-0.28 0.977 2.139-2.101 6.12-7.241 6.699-1.96 0.22-2.98-0.539-3.241-0.82-0.279-0.3-0.319-0.32-0.419-0.259-0.16 0.080-0.060 0.34 0 0.5 0.16 0.4 0.78 1.1 1.861 1.46 0.939 0.3 3.24 0.479 6-0.6 3.099-1.199 5.519-4.54 4.819-7.34z">
			</path>
		</symbol>
		<symbol id="icon-bootstrap" viewBox="0 0 32 32">
			<path fill="#563d7c" style="fill: var(--color5, #563d7c)" d="M26.667 0h-21.333c-2.943 0.008-5.325 2.391-5.333 5.333v21.333c0 2.933 2.4 5.333 5.333 5.333h21.333c2.933 0 5.333-2.4 5.333-5.333v-21.333c0-2.933-2.4-5.333-5.333-5.333zM23.751 22.473c-0.267 0.643-0.689 1.209-1.231 1.645-0.56 0.453-1.269 0.827-2.143 1.093-0.872 0.271-1.909 0.407-3.111 0.407h-8.576v-18.667h9.069c1.677 0 3.021 0.377 4.027 1.147 1.013 0.773 1.517 1.925 1.517 3.48 0 0.94-0.229 1.747-0.691 2.413-0.459 0.663-1.12 1.181-1.973 1.541v0.061c1.139 0.24 2.020 0.78 2.6 1.62s0.877 1.901 0.877 3.183c0 0.717-0.139 1.4-0.4 2.037zM20.049 17.873c-0.547-0.5-1.315-0.744-2.307-0.744h-5.763v5.824h5.779c0.987 0 1.76-0.256 2.307-0.773 0.547-0.513 0.827-1.245 0.827-2.187-0.009-0.92-0.28-1.632-0.827-2.12zM19.249 14.109c0.528-0.448 0.787-1.089 0.787-1.925 0-0.939-0.233-1.605-0.707-1.987-0.469-0.38-1.147-0.577-2.037-0.577h-5.333v5.151h5.333c0.777 0 1.44-0.227 1.957-0.661z">
			</path>
		</symbol>
		<symbol id="icon-adobeil" viewBox="0 0 32 32">
			<path fill="#ff7c00" style="fill: var(--color4, #ff7c00)" d="M0 0.4v31.2h32v-31.2zM1.333 1.733h29.333v28.533h-29.333zM11.1 18.067l-1.056 3.997c-0.023 0.111-0.067 0.136-0.197 0.136h-1.957c-0.133 0-0.153-0.044-0.133-0.197l3.787-13.26c0.067-0.24 0.109-0.451 0.131-1.111 0-0.088 0.044-0.133 0.111-0.133h2.795c0.088 0 0.133 0.024 0.155 0.133l4.247 14.392c0.023 0.111 0 0.176-0.111 0.176h-2.2c-0.111 0-0.176-0.027-0.197-0.115l-1.1-4.020zM14.817 15.9c-0.373-1.475-1.253-4.704-1.584-6.267h-0.023c-0.285 1.56-0.989 4.2-1.54 6.267zM20.817 8.489c0-0.857 0.593-1.364 1.364-1.364 0.813 0 1.364 0.549 1.364 1.364 0 0.88-0.573 1.364-1.387 1.364-0.8 0-1.347-0.484-1.341-1.364zM20.967 11.521c0-0.107 0.044-0.147 0.155-0.147h2.093c0.117 0 0.16 0.044 0.16 0.155v10.527c0 0.111-0.021 0.155-0.153 0.155h-2.067c-0.133 0-0.177-0.067-0.177-0.173z">
			</path>
		</symbol>
		<symbol id="icon-adobeli" viewBox="0 0 32 32">
			<path fill="#add5ec" style="fill: var(--color3, #add5ec)" d="M0 0.4v31.2h32v-31.2zM1.333 1.733h29.333v28.533h-29.333zM8.864 22.167c-0.155 0-0.197-0.067-0.197-0.197v-14.325c0-0.111 0.044-0.176 0.155-0.176h2.112c0.112 0 0.133 0.049 0.133 0.16v12.347h5.5c0.111 0 0.141 0.044 0.12 0.155l-0.331 1.893c-0.021 0.109-0.088 0.153-0.197 0.153zM18.733 13.532c0-0.16 0-0.555-0.067-1.303 0-0.111 0.024-0.133 0.112-0.176 0.813-0.328 2.744-0.923 4.9-0.923 0.107 0 0.149 0.023 0.149 0.133v1.936c0 0.112-0.044 0.133-0.155 0.133-0.837-0.044-2.085 0.067-2.547 0.264v8.413c0 0.109-0.044 0.153-0.155 0.153h-2.093c-0.107 0-0.152-0.044-0.152-0.155z">
			</path>
		</symbol>
		<symbol id="icon-adobepho" viewBox="0 0 32 32">
			<path fill="#00c8ff" style="fill: var(--color2, #00c8ff)" d="M0 0.4v31.2h32v-31.2zM1.333 1.733h29.333v28.533h-29.333zM7.733 7.707c0-0.089 0.187-0.155 0.299-0.155 0.859-0.044 2.117-0.067 3.437-0.067 3.696 0 5.133 2.027 5.133 4.621 0 3.387-2.456 4.84-5.469 4.84-0.507 0-0.68-0.023-1.033-0.023v5.123c0 0.111-0.044 0.155-0.153 0.155h-2.059c-0.111 0-0.153-0.040-0.153-0.151zM10.1 14.789c0.307 0.021 0.549 0.021 1.080 0.021 1.56 0 3.027-0.549 3.027-2.661 0-1.693-1.048-2.552-2.829-2.552-0.528 0-1.033 0.021-1.276 0.044zM21.576 13.205c-1.056 0-1.408 0.528-1.408 0.968 0 0.484 0.24 0.813 1.649 1.54 2.091 1.013 2.749 1.98 2.749 3.409 0 2.133-1.627 3.28-3.827 3.28-1.168 0-2.16-0.244-2.733-0.573-0.087-0.044-0.107-0.109-0.107-0.22v-1.956c0-0.133 0.064-0.177 0.152-0.112 0.832 0.551 1.803 0.792 2.683 0.792 1.056 0 1.496-0.44 1.496-1.035 0-0.484-0.307-0.903-1.649-1.607-1.893-0.907-2.685-1.827-2.685-3.369 0-1.716 1.341-3.147 3.673-3.147 1.147 0 1.952 0.176 2.392 0.373 0.109 0.067 0.133 0.176 0.133 0.264v1.827c0 0.111-0.067 0.177-0.2 0.133-0.592-0.352-1.467-0.573-2.319-0.568z">
			</path>
		</symbol>
		<symbol id="icon-figma" viewBox="0 0 32 32">
			<path fill="#f24e1e" style="fill: var(--color1, #f24e1e)" d="M16 16c0-2.946 2.388-5.333 5.333-5.333s5.333 2.388 5.333 5.333v0c0 2.946-2.388 5.333-5.333 5.333s-5.333-2.388-5.333-5.333v0zM5.333 26.667c0-2.946 2.388-5.333 5.333-5.333v0h5.333v5.333c0 2.946-2.388 5.333-5.333 5.333s-5.333-2.388-5.333-5.333v0zM16 0v10.667h5.333c2.946 0 5.333-2.388 5.333-5.333s-2.388-5.333-5.333-5.333v0zM5.333 5.333c0 2.946 2.388 5.333 5.333 5.333v0h5.333v-10.667h-5.333c-2.946 0-5.333 2.388-5.333 5.333v0zM5.333 16c0 2.946 2.388 5.333 5.333 5.333v0h5.333v-10.667h-5.333c-2.946 0-5.333 2.388-5.333 5.333v0z">
			</path>
		</symbol>
		<symbol id="icon-linetag" viewBox="0 0 1078 32">
			<path fill="none" stroke="#000" style="stroke: var(--text-color, #000)" stroke-linejoin="miter" stroke-linecap="butt" stroke-miterlimit="4" stroke-width="1" d="M0.952 16h1100.571">
			</path>
			<!--
			<path d="M21.925 16.904h-6.545v6.545h-2.148v-6.545h-6.545v-2.148h6.545v-6.545h2.148v6.545h6.545v2.148z">
			</path>
			<path d="M1068.023 16.904h-6.545v6.545h-2.149v-6.545h-6.545v-2.148h6.545v-6.545h2.149v6.545h6.545v2.148z">
			</path>
			-->
		</symbol>
		<symbol id="icon-linkedin" viewBox="0 0 32 32">
			<path d="M12 12h5.535v2.837h0.079c0.77-1.381 2.655-2.837 5.464-2.837 5.842 0 6.922 3.637 6.922 8.367v9.633h-5.769v-8.54c0-2.037-0.042-4.657-3.001-4.657-3.005 0-3.463 2.218-3.463 4.509v8.688h-5.767v-18z">
			</path>
			<path d="M2 12h6v18h-6v-18z">
			</path>
			<path d="M8 7c0 1.657-1.343 3-3 3s-3-1.343-3-3c0-1.657 1.343-3 3-3s3 1.343 3 3z">
			</path>
		</symbol>
		<symbol id="icon-github" viewBox="0 0 32 32">
			<path d="M16 0.395c-8.836 0-16 7.163-16 16 0 7.069 4.585 13.067 10.942 15.182 0.8 0.148 1.094-0.347 1.094-0.77 0-0.381-0.015-1.642-0.022-2.979-4.452 0.968-5.391-1.888-5.391-1.888-0.728-1.849-1.776-2.341-1.776-2.341-1.452-0.993 0.11-0.973 0.11-0.973 1.606 0.113 2.452 1.649 2.452 1.649 1.427 2.446 3.743 1.739 4.656 1.33 0.143-1.034 0.558-1.74 1.016-2.14-3.554-0.404-7.29-1.777-7.29-7.907 0-1.747 0.625-3.174 1.649-4.295-0.166-0.403-0.714-2.030 0.155-4.234 0 0 1.344-0.43 4.401 1.64 1.276-0.355 2.645-0.532 4.005-0.539 1.359 0.006 2.729 0.184 4.008 0.539 3.054-2.070 4.395-1.64 4.395-1.64 0.871 2.204 0.323 3.831 0.157 4.234 1.026 1.12 1.647 2.548 1.647 4.295 0 6.145-3.743 7.498-7.306 7.895 0.574 0.497 1.085 1.47 1.085 2.963 0 2.141-0.019 3.864-0.019 4.391 0 0.426 0.288 0.925 1.099 0.768 6.354-2.118 10.933-8.113 10.933-15.18 0-8.837-7.164-16-16-16z">
			</path>
		</symbol>
		<symbol id="icon-envelope-o" viewBox="0 0 28 26">
			<path d="M28 11.094v12.406c0 1.375-1.125 2.5-2.5 2.5h-23c-1.375 0-2.5-1.125-2.5-2.5v-12.406c0.469 0.516 1 0.969 1.578 1.359 2.594 1.766 5.219 3.531 7.766 5.391 1.313 0.969 2.938 2.156 4.641 2.156h0.031c1.703 0 3.328-1.188 4.641-2.156 2.547-1.844 5.172-3.625 7.781-5.391 0.562-0.391 1.094-0.844 1.563-1.359zM28 6.5c0 1.75-1.297 3.328-2.672 4.281-2.438 1.687-4.891 3.375-7.313 5.078-1.016 0.703-2.734 2.141-4 2.141h-0.031c-1.266 0-2.984-1.437-4-2.141-2.422-1.703-4.875-3.391-7.297-5.078-1.109-0.75-2.688-2.516-2.688-3.938 0-1.531 0.828-2.844 2.5-2.844h23c1.359 0 2.5 1.125 2.5 2.5z">
			</path>
		</symbol>
		<!--
		<symbol id="ICOn" viewBox="0 0 110 32">
		<path stroke-linejoin="miter" stroke-linecap="square" stroke-miterlimit="10" stroke-width="2.6611" d="M61.392 1.331h42.099c2.661 0 4.684 1.716 4.684 3.819v6.014c0 2.102-2.089 3.819-4.684 3.819h-39.983c-0.055-0.006-0.119-0.009-0.184-0.009-1.001 0-1.825 0.757-1.931 1.73l-0.001 0.009v13.958">
		</path>
		<path stroke-linejoin="miter" stroke-linecap="square" stroke-miterlimit="10" stroke-width="2.6611" d="M108.175 30.669v-11.789c0-2.102-2.275-3.912-4.803-3.912">
		</path>
		<path stroke-linejoin="miter" stroke-linecap="butt" stroke-miterlimit="10" stroke-width="2.6611" d="M1.331 1.331h35.153c7.837 0 14.197 5.176 14.197 11.563v6.214c0 6.387-6.36 11.563-14.197 11.563h-35.153z">
		</path>
		</symbol>
		-->
		<symbol id="ICOn" viewBox="0 0 110 32">
			<g id="Capa_2" data-name="Capa 2">
				<g id="Capa_1-2" data-name="Capa 1">
					<g id="DRico">
						<path d="M46.14 1h31.64c2 0 3.52 1.29 3.52 2.87v4.52c0 1.58-1.57 2.87-3.52 2.87H47.73a1.46 1.46 0 0 0-1.59 1.3v10.49" class="cls-1" />
						<path d="M81.3 23.05v-8.86c0-1.58-1.71-2.94-3.61-2.94" class="cls-1" />
						<path d="M1 1h26.42c5.89 0 10.67 3.89 10.67 8.69v4.67c0 4.8-4.78 8.69-10.67 8.69H1Z" />
					</g>
				</g>
			</g>
		</symbol>
		<symbol id="ICOn2" viewBox="0 0 70 32">
			<path d="M2.614 0.053h26.341c0.002 0 0.004 0 0.006 0 0.776 0 1.472 0.345 1.942 0.89l0.003 0.003 2.655 3.581c0.893 1.045 0.551 2.659-0.823 2.659h-30.123c0 0-0 0-0 0-1.416 0-2.564-1.148-2.564-2.564 0-0.006 0-0.012 0-0.017v0.001-1.992c0-0.001 0-0.003 0-0.004 0-1.412 1.144-2.556 2.556-2.556 0.003 0 0.006 0 0.009 0h-0z">
			</path>
			<path d="M29.102 19.007h3.824c0.909 0 1.646 0.737 1.646 1.646v0 5.248c-0.001 0.878-0.354 1.673-0.926 2.252l0-0-2.807 2.836c-0.579 0.587-1.384 0.951-2.274 0.951-0.001 0-0.002 0-0.003 0h-25.777c-0 0-0 0-0 0-1.504 0-2.723-1.214-2.733-2.715v-8.088c0-0.001 0-0.003 0-0.004 0-1.173 0.951-2.124 2.124-2.124 0 0 0 0 0 0h2.922c1.51 0 2.058 0.235 2.058 1.745v2.881c0 1.51 1.235 1.161 2.737 1.161h14.817c0 0 0 0 0 0 1.509 0 2.733-1.224 2.733-2.733 0-0.001 0-0.003 0-0.004v0-1.403c0 0 0-0 0-0 0-0.909 0.737-1.646 1.646-1.646 0.004 0 0.009 0 0.013 0h-0.001z">
			</path>
			<path d="M39.034 7.166h21.978c0.989 0.002 1.79 0.802 1.794 1.79v0c-0.002 1.015-0.825 1.837-1.84 1.84h-59.321c-0.781 0.005-1.412 0.639-1.412 1.42 0 0.003 0 0.006 0 0.009v-0 2.095c0 1.307 1.060 2.367 2.367 2.367v0h56.933c0.001 0 0.001 0 0.002 0 0.8 0 1.534 0.288 2.102 0.765l-0.005-0.004c0.716 0.605 1.169 1.503 1.173 2.506v10.167c0 0.001 0 0.003 0 0.004 0 1.001 0.81 1.813 1.811 1.815h3.486c1.003-0.002 1.815-0.816 1.815-1.819 0 0 0 0 0 0v0-11.936c0-0.955 0-1.955-1.132-3.091l-1.288-1.099c-0.097-0.086-0.159-0.211-0.159-0.35 0-0.175 0.096-0.327 0.239-0.406l0.002-0.001 0.535-0.3c1.085-0.607 1.806-1.748 1.807-3.058v-4.939c0-0.001 0-0.002 0-0.003 0-0.884-0.352-1.686-0.923-2.274l-0.6-0.625c-1.181-1.224-2.837-1.984-4.669-1.984-0.001 0-0.002 0-0.002 0h-24.694c-1.212 0-2.194 0.982-2.194 2.194v0 2.725c0 1.212 0.982 2.194 2.194 2.194v0z">
			</path>
			<path d="M38.425 19.077h3.968c0.841 0 1.523 0.682 1.523 1.523v0 9.767c-0.002 0.874-0.71 1.582-1.584 1.585h-3.906c-0.875 0-1.585-0.709-1.585-1.585v0-9.705c0-0.875 0.709-1.585 1.585-1.585v0z">
			</path>
		</symbol>
		<symbol id="ICOn3" viewBox="0 0 59 32">
			<path d="M2.165 11.642c-1.196-0.001-2.165-0.971-2.165-2.167 0 0 0 0 0 0v0-7.311c0-0 0-0 0-0 0-1.195 0.969-2.165 2.165-2.165 0.006 0 0.013 0 0.019 0h-0.001c3.928 0.031 11.866 0 12.878 0h10.508c1.108 0.006 2.101 0.49 2.786 1.256l0.003 0.004 4.683 5.18c0.666 0.702 0.219 1.561-0.749 1.561h-21.151c-1.782 0-2.167 0.299-2.175 1.493v0c-0.006 1.191-0.972 2.155-2.164 2.157h-0zM18.36 18.911c-0.055 3.608-0.161 5.242-3.772 5.242h-3.4c-1.197 0-2.167-0.97-2.167-2.167 0-0.001 0-0.002 0-0.003v0-5.234c0-0.005 0-0.010 0-0.016 0-1.194-0.966-2.162-2.159-2.165h-4.683c-0.003-0-0.007-0-0.010-0-1.197 0-2.167 0.97-2.167 2.167 0 0.004 0 0.007 0 0.011v-0.001 13.086c0 0.001 0 0.002 0 0.003 0 1.195 0.969 2.165 2.165 2.165h13.802c5.232 0.060 11.127-3.432 11.127-11.119v-6.551c0-0.001 0-0.002 0-0.003 0-1.195-0.969-2.165-2.165-2.165h-4.376c-1.185 0.006-2.145 0.962-2.157 2.145v0.001zM52.509 19.595c-0.084-0.123-0.135-0.275-0.135-0.438 0-0.327 0.201-0.607 0.486-0.723l0.005-0.002c1.982-0.78 6.468-3.203 6.468-8.806 0-7.194-6.933-9.608-12.306-9.608-1.821-0.034-7.141 0-7.141 0h-2.521l-2.981-0.018c-0.895 0-1.275 1.041-0.669 1.707 0.713 0.78 5.518 5.593 5.518 5.593 0.393 0.415 0.946 0.674 1.56 0.676h8.326q0.094 0 0.187 0c0.369-0.031 1.977-0.052 1.93 1.912-0.052 2.219-2.042 2.219-2.042 2.219l-4.774 0.029c-1.183 0.018-2.136 0.981-2.136 2.167 0 0.002 0 0.004 0 0.006v-0 4.103c0 0.194 0.059 0.374 0.161 0.524l-0.002-0.003 8.164 12.113c0.393 0.579 1.048 0.955 1.791 0.955 0.002 0 0.003 0 0.005 0h4.422c0.001 0 0.002 0 0.003 0 1.195 0 2.165-0.969 2.165-2.165 0-0.455-0.14-0.877-0.38-1.225l0.005 0.007zM30.915 14.33v15.503c0 1.195 0.969 2.165 2.165 2.165v0h3.236c1.194 0 2.602-0.968 2.602-2.165v-15.503c0-1.197-0.97-2.167-2.167-2.167v0h-3.679c-1.196 0.001-2.165 0.971-2.165 2.167 0 0 0 0 0 0v0z">
			</path>
		</symbol>
		<symbol id="ICOn4" viewBox="0 0 33 32">
			<path d="M32.228 29.081l-5.567-11.284 1.531-0.769c2.501-1.279 4.192-3.823 4.229-6.765l0-0.005 0.043-3.616c0-0.019 0-0.042 0-0.064 0-3.633-2.945-6.578-6.578-6.578-0.003 0-0.005 0-0.008 0h-25.877c1.12 0.701 2.079 1.529 2.898 2.482l0.014 0.017c0.513 0.513 1.011 1.075 1.509 1.637l0.285 0.278c1.531 1.467 2.848 2.954 4.983 3.253 0.342 0.043 0.712 0.078 1.032 0.107h10.18c0.96 0.062 1.716 0.856 1.716 1.826s-0.755 1.764-1.71 1.826l-0.005 0h-0.655l-7.589 0.043v6.5c0.132 0.092 0.293 0.15 0.468 0.157l0.002 0c0.655 0 2.378 0 2.848 0 0.001 0 0.001 0 0.002 0 0.157 0 0.292 0.089 0.36 0.218l0.001 0.002 6.549 12.814c0.334 0.529 0.915 0.876 1.577 0.876 0.004 0 0.007 0 0.011-0h6.2c0.007 0 0.016 0 0.024 0 1.034 0 1.872-0.838 1.872-1.872 0-0.406-0.129-0.781-0.348-1.088l0.004 0.006z">
			</path>
		</symbol>
		<symbol id="HomePattern" viewBox="0 0 10 32">
			<path d="M0 18.808v-1.577h5.474v11.662c-0.007 0.808 0.145 1.127 0.269 1.257 0.244 0.256 0.389 0.266 0.96 0.266 0.583 0 0.828-0.013 1.18-0.351 0.225-0.215 0.24-0.941 0.247-1.214v-11.619h1.397v11.658c-0.012 0.553-0.035 1.705-0.738 2.378-0.757 0.726-1.454 0.726-2.070 0.726-0.66 0-1.272 0-1.925-0.687-0.014-0.014-0.027-0.029-0.040-0.043-0.455 0.472-1.083 0.739-1.802 0.739h-2.926v-1.578h2.923c0.394 0 0.894-0.127 1.093-0.718l0.035-0.862v-10.035zM0.025 10.097v-10.097h9.503v10.001c-0.005 0.362-0.030 0.713-0.075 1.058l0.005-0.045c-0.26 2.202-1.734 3.987-3.668 4.441-0.286 0.070-0.614 0.11-0.951 0.11-0.388 0-0.764-0.053-1.12-0.152l0.029 0.007-0.144-0.041c-1.915-0.521-3.337-2.347-3.54-4.544-0.026-0.282-0.038-0.524-0.038-0.738zM1.422 1.577v8.52c0 0.157 0.010 0.35 0.031 0.575 0.141 1.534 1.137 2.809 2.477 3.174l0.145 0.039c0.23 0.065 0.493 0.102 0.766 0.102 0.235 0 0.464-0.028 0.684-0.081l-0.020 0.004c1.354-0.318 2.386-1.566 2.568-3.106 0.032-0.238 0.053-0.516 0.057-0.799l0-0.005v-8.424z">
			</path>
		</symbol>
		<symbol id="NeonGs" viewBox="0 0 79 32">
			<path fill="#e6e6e6" style="fill: var(--color1, #e6e6e6)" d="M75.4 13.211c0.052-3.318-0.762-6.164-4.029-8.116-0.1-0.060-0.187-0.123-0.267-0.192l0.003 0.002c-1.375-0.668-2.974-1.132-4.658-1.305l-0.061-0.005c-3.881-0.402-8.595 0.050-10.751-0.043-1.802-0.079-2.744 0.395-2.555 2.093 0 0 1.595-0.551 1.929-0.388 0.56 0.023 8.527-0.077 12.267 0.12 0.29 0.014 1.621 0.129 2.533 0.456 0.759 0.291 1.403 0.73 1.925 1.286l0.003 0.003c1.33 1.3 2.031 3.559 2.095 5.392 0.068 2.025 0.241 5.542 0.358 7.819 0.052 1.017-0.266 3.833-1.418 5.138-0.98 1.112-2.587 1.359-3.161 1.385s-2.422 0.331-2.422 0.331l-0.894 1.405s2.365-0.179 3.565-0.372c3.111-0.486 5.57-2.44 5.617-5.449 0.054-3.17-0.129-6.396-0.077-9.561z">
			</path>
			<path fill="#e6e6e6" style="fill: var(--color1, #e6e6e6)" d="M5.801 22.654c0.038 0.089 0.329 2.117 1.736 2.744 1.010 0.451 5.528 0.926 5.528 0.926l1.296 1.343s-1.234 0-1.945-0.084c-0.649-0.073-2.233-0.125-3.422-0.425-1.251-0.316-2.515-0.697-3.175-1.348-1.073-1.053-1.461-2.994-1.634-4.049-0.624-3.824-0.688-7.775-0.799-11.638-0.095-3.352 2.413-5.696 6.18-5.857 3.314-0.139 6.901-0.152 10.217-0.257 0.99-0.032 1.909-0.134 1.906 0.577s-0.912 0.465-1.788 0.49c-3.186 0.093-6.64 0.091-9.832 0.195-3.044 0.093-5.476 2.39-5.379 5.079 0.030 0.855-0.164 9.2 1.112 12.305z">
			</path>
			<path fill="#e6e6e6" style="fill: var(--color1, #e6e6e6)" d="M45.267 4.995c0.304 0 0.506-0.277 0.358-0.536s-0.49-0.381-0.681-0.499c-0.476-0.293-0.99-0.252-1.552-0.247-4.074 0.034-6.425 0.166-10.501 0.2-0.055-0.004-0.119-0.007-0.183-0.007-0.343 0-0.669 0.068-0.967 0.192l0.017-0.006c-0.206 0.153-0.383 0.33-0.532 0.53l-0.005 0.007c-0.048 0.056-0.078 0.13-0.078 0.211 0 0.18 0.146 0.325 0.325 0.325 0.003 0 0.007-0 0.010-0h-0c2.517 0.020 11.484-0.139 13.789-0.17z">
			</path>
		</symbol>
	</defs>
</svg>
