<svg aria-hidden="true" xmlns="http://www.w3.org/2000/svg" overflow="hidden">
	<defs>
		<symbol id="IconX" viewBox="0 0 32 32" width="30px" height="30px">
			<path class="iconcolor" fill="" d="M30 24.398l-8.406-8.398 8.406-8.398-5.602-5.602-8.398 8.402-8.402-8.402-5.598 5.602 8.398 8.398-8.398 8.398 5.598 5.602 8.402-8.402 8.398 8.402z">
			</path>
		</symbol>
		<symbol id="Vector41" viewBox="0 0 325 32" width="170px" height="20px">
			<path fill="" d="M179.947 0h-160.905l-18.566 18.566 18.566 12.377h314.195v-3.332h-128.535l-24.755-27.611z">
			</path>
		</symbol>
		<symbol id="separator" viewBox="0 0 325 32" width="170px" height="20px">
			<path fill="" d="M179.947 0h-160.905l-18.566 18.566 18.566 12.377h314.195v-3.332h-128.535l-24.755-27.611z">
			</path>
		</symbol>
		<!-- <symbol id="lines-separator">
			<g stroke="" stroke-miterlimit="0" stroke-width="1" clip-path="url(#a)"><path d="M-24 21 11.984 0M13.968 21 49.952 0M-5.016 21 30.968 0M51.935 21 87.92 0M32.952 21 68.936 0M89.903 21l35.984-21M70.92 21l35.983-21M127.871 21l35.984-21M108.887 21l35.984-21M165.839 21l35.984-21M146.855 21l35.984-21M203.807 21 239.79 0M184.823 21l35.984-21M241.774 21l35.984-21M222.791 21l35.983-21M279.742 21l35.984-21M260.758 21l35.984-21M317.71 21l35.984-21M298.726 21 334.71 0M355.678 21l35.984-21M336.694 21l35.984-21M393.646 21l35.983-21M374.662 21l35.983-21M431.613 21l35.984-21M412.629 21l35.984-21M469.581 21l35.984-21M450.597 21l35.984-21M507.549 21l35.984-21M488.565 21l35.984-21M545.517 21 581.5 0M526.533 21l35.984-21M583.484 21l35.984-21M564.5 21l35.984-21M621.452 21l35.984-21M602.468 21l35.984-21M640.436 21 676.42 0M659.42 21l35.984-21M678.404 21l35.984-21M697.388 21l35.984-21M716.371 21l35.984-21M735.355 21l35.984-21M754.339 21l35.984-21M773.323 21l35.984-21"/></g><defs><clipPath id="a"><path fill="#fff" d="M0 0h790v21H0z"/></clipPath></defs>
		</symbol> -->
		<symbol id="lines-separator" >
			<path stroke="" stroke-width="0.8" d="m1.157 15 17-13m-17 0 17 13M349.157 15l17-13m-17 0 17 13M175.157 15l17-13m-17 0 17 13M523.157 15l17-13m-17 0 17 13M88.157 15l17-13m-17 0 17 13M436.157 15l17-13m-17 0 17 13M262.157 15l17-13m-17 0 17 13M610.157 15l17-13m-17 0 17 13M30.157 15l17-13m-17 0 17 13M378.157 15l17-13m-17 0 17 13M204.157 15l17-13m-17 0 17 13M552.157 15l17-13m-17 0 17 13M117.157 15l17-13m-17 0 17 13M465.157 15l17-13m-17 0 17 13M291.157 15l17-13m-17 0 17 13M639.157 15l17-13m-17 0 17 13M59.157 15l17-13m-17 0 17 13M407.157 15l17-13m-17 0 17 13M233.157 15l17-13m-17 0 17 13M581.157 15l17-13m-17 0 17 13M146.157 15l17-13m-17 0 17 13M494.157 15l17-13m-17 0 17 13M320.157 15l17-13m-17 0 17 13M668.157 15l17-13m-17 0 17 13"/>
		</symbol>
	</defs>
</svg>