<svg xmlns="http://www.w3.org/2000/svg" viewBox="0 0 387.64 209.06"><g id="Capa_2" data-name="Capa 2"><g id="Capa_1-2" data-name="Capa 1"><g id="DR_LINE" data-name="DR LINE"><path d="M14.15,79.46A14.14,14.14,0,0,1,0,65.32V14.15A14.15,14.15,0,0,1,14.26,0C39.92.2,91.86,0,98.4,0l74.67.07c7.12,0,13.24,3,18.17,8.15l31.48,32c4.35,4.61.53,12-5.8,12H72.78c-7.81,0-14.16,5.37-14.2,13.18h0A14.15,14.15,0,0,1,44.43,79.46Zm110.76,44.09c-.37,23.59-6,34.26-29.61,34.26H73.05A14.16,14.16,0,0,1,58.9,143.63l.06-34.2A14.14,14.14,0,0,0,44.82,95.26H14.15A14.14,14.14,0,0,0,0,109.4v85.51a14.14,14.14,0,0,0,14.15,14.14h90.16c34.18.38,72.71-22.42,72.71-72.64V93.61a14.16,14.16,0,0,0-14.15-14.15H139.3a14.15,14.15,0,0,0-14.15,14ZM343.06,128a5.09,5.09,0,0,1,2.32-7.59c13-5.18,42.26-20.93,42.26-57.54,0-47-45.3-62.77-80.4-62.77-11.83-.23-46.66,0-46.66,0H244.12L224.64.07c-5.85,0-8.33,6.84-4.38,11.14,4.67,5.09,36.06,36.56,36.06,36.56a14.15,14.15,0,0,0,10.26,4.42l54.45.06c.41,0,.81,0,1.22,0,2.42-.2,12.91-.34,12.61,12.5-.33,14.5-13.35,14.5-13.35,14.5l-31.18.18a14.16,14.16,0,0,0-14.07,14.15V120.3a6,6,0,0,0,1,3.38l53.33,79.13a14.14,14.14,0,0,0,11.73,6.24h28.89A14.14,14.14,0,0,0,383,187ZM201.93,93.61v101.3a14.14,14.14,0,0,0,14.15,14.14h21.13a14.14,14.14,0,0,0,14.14-14.14V93.61a14.15,14.15,0,0,0-14.14-14.15H216.08A14.15,14.15,0,0,0,201.93,93.61Z"/></g></g></g></svg>